<svg width="172" height="74" viewBox="0 0 172 74" fill="none" xmlns="http://www.w3.org/2000/svg">
<path d="M18.3097 18.2756C18.196 17.1297 17.7083 16.2396 16.8466 15.6051C15.9848 14.9706 14.8153 14.6534 13.3381 14.6534C12.3343 14.6534 11.4867 14.7955 10.7955 15.0795C10.1042 15.3542 9.57386 15.7377 9.20455 16.2301C8.8447 16.7225 8.66477 17.2812 8.66477 17.9062C8.64583 18.4271 8.75473 18.8816 8.99148 19.2699C9.23769 19.6581 9.57386 19.9943 10 20.2784C10.4261 20.553 10.9186 20.7945 11.4773 21.0028C12.036 21.2017 12.6326 21.3722 13.267 21.5142L15.8807 22.1392C17.1496 22.4233 18.3144 22.8021 19.375 23.2756C20.4356 23.7491 21.3542 24.3314 22.1307 25.0227C22.9072 25.714 23.5085 26.5284 23.9347 27.4659C24.3703 28.4034 24.5928 29.4782 24.6023 30.6903C24.5928 32.4706 24.1383 34.0142 23.2386 35.321C22.3485 36.6184 21.0606 37.6269 19.375 38.3466C17.6989 39.0568 15.6771 39.4119 13.3097 39.4119C10.9612 39.4119 8.91572 39.0521 7.1733 38.3324C5.44034 37.6127 4.08617 36.5473 3.1108 35.1364C2.14489 33.7159 1.63826 31.9593 1.59091 29.8665H7.54261C7.6089 30.8419 7.88826 31.6562 8.38068 32.3097C8.88258 32.9536 9.55019 33.4413 10.3835 33.7727C11.2263 34.0947 12.178 34.2557 13.2386 34.2557C14.2803 34.2557 15.1847 34.1042 15.9517 33.8011C16.7282 33.4981 17.3295 33.0767 17.7557 32.5369C18.1818 31.9972 18.3949 31.3769 18.3949 30.6761C18.3949 30.0227 18.2008 29.4735 17.8125 29.0284C17.4337 28.5833 16.875 28.2045 16.1364 27.892C15.4072 27.5795 14.5123 27.2955 13.4517 27.0398L10.2841 26.2443C7.83144 25.6477 5.89489 24.715 4.47443 23.446C3.05398 22.1771 2.34848 20.4678 2.35795 18.3182C2.34848 16.5568 2.81723 15.018 3.7642 13.7017C4.72064 12.3854 6.0322 11.358 7.69886 10.6193C9.36553 9.88068 11.2595 9.51136 13.3807 9.51136C15.5398 9.51136 17.4242 9.88068 19.0341 10.6193C20.6534 11.358 21.9129 12.3854 22.8125 13.7017C23.7121 15.018 24.1761 16.5426 24.2045 18.2756H18.3097ZM34.1087 32.7216L34.1229 25.4631H35.0036L41.9922 17.1818H48.9382L39.549 28.1477H38.1143L34.1087 32.7216ZM28.6257 39V9.90909H34.6768V39H28.6257ZM42.2621 39L35.8416 29.4972L39.8757 25.2216L49.3501 39H42.2621ZM51.907 39V17.1818H57.9581V39H51.907ZM54.9467 14.3693C54.0471 14.3693 53.2753 14.071 52.6314 13.4744C51.9969 12.8684 51.6797 12.1439 51.6797 11.3011C51.6797 10.4678 51.9969 9.75284 52.6314 9.15625C53.2753 8.55019 54.0471 8.24716 54.9467 8.24716C55.8464 8.24716 56.6134 8.55019 57.2479 9.15625C57.8918 9.75284 58.2138 10.4678 58.2138 11.3011C58.2138 12.1439 57.8918 12.8684 57.2479 13.4744C56.6134 14.071 55.8464 14.3693 54.9467 14.3693ZM68.8565 26.3864V39H62.8054V17.1818H68.5724V21.0312H68.8281C69.3111 19.7623 70.1207 18.7585 71.2571 18.0199C72.3935 17.2718 73.7713 16.8977 75.3906 16.8977C76.9058 16.8977 78.2268 17.2292 79.3537 17.892C80.4806 18.5549 81.3565 19.5019 81.9815 20.733C82.6065 21.9545 82.919 23.4129 82.919 25.108V39H76.8679V26.1875C76.8774 24.8523 76.5365 23.8106 75.8452 23.0625C75.1539 22.3049 74.2022 21.9261 72.9901 21.9261C72.1757 21.9261 71.456 22.1013 70.831 22.4517C70.2154 22.8021 69.7325 23.3134 69.3821 23.9858C69.0412 24.6487 68.866 25.4489 68.8565 26.3864ZM97.5462 39.4261C95.3113 39.4261 93.389 38.9527 91.7791 38.0057C90.1787 37.0492 88.9477 35.7235 88.0859 34.0284C87.2337 32.3333 86.8075 30.3826 86.8075 28.1761C86.8075 25.9413 87.2384 23.9811 88.1001 22.2955C88.9714 20.6004 90.2071 19.2794 91.8075 18.3324C93.4079 17.3759 95.3113 16.8977 97.5178 16.8977C99.4212 16.8977 101.088 17.2434 102.518 17.9347C103.948 18.6259 105.079 19.5966 105.913 20.8466C106.746 22.0966 107.205 23.5644 107.29 25.25H101.58C101.419 24.161 100.993 23.285 100.302 22.6222C99.62 21.9498 98.7251 21.6136 97.6172 21.6136C96.6797 21.6136 95.8606 21.8693 95.1598 22.3807C94.4685 22.8826 93.9287 23.6165 93.5405 24.5824C93.1522 25.5483 92.9581 26.7178 92.9581 28.0909C92.9581 29.483 93.1475 30.6667 93.5263 31.642C93.9145 32.6174 94.459 33.3608 95.1598 33.8722C95.8606 34.3835 96.6797 34.6392 97.6172 34.6392C98.3085 34.6392 98.9287 34.4972 99.478 34.2131C100.037 33.929 100.496 33.517 100.856 32.9773C101.225 32.428 101.467 31.7699 101.58 31.0028H107.29C107.196 32.6695 106.741 34.1373 105.927 35.4062C105.122 36.6657 104.009 37.6506 102.589 38.3608C101.168 39.071 99.4875 39.4261 97.5462 39.4261ZM117.386 39.4119C115.994 39.4119 114.754 39.1705 113.665 38.6875C112.576 38.1951 111.714 37.4706 111.08 36.5142C110.455 35.5483 110.142 34.3456 110.142 32.9062C110.142 31.6941 110.365 30.6761 110.81 29.8523C111.255 29.0284 111.861 28.3655 112.628 27.8636C113.395 27.3617 114.266 26.983 115.241 26.7273C116.226 26.4716 117.259 26.2917 118.338 26.1875C119.607 26.0549 120.63 25.9318 121.406 25.8182C122.183 25.6951 122.746 25.5152 123.097 25.2784C123.447 25.0417 123.622 24.6913 123.622 24.2273V24.142C123.622 23.2424 123.338 22.5464 122.77 22.054C122.211 21.5616 121.416 21.3153 120.384 21.3153C119.295 21.3153 118.428 21.5568 117.784 22.0398C117.14 22.5133 116.714 23.1098 116.506 23.8295L110.909 23.375C111.193 22.0492 111.752 20.9034 112.585 19.9375C113.419 18.9621 114.493 18.214 115.81 17.6932C117.135 17.1629 118.67 16.8977 120.412 16.8977C121.624 16.8977 122.784 17.0398 123.892 17.3239C125.009 17.608 125.999 18.0483 126.861 18.6449C127.732 19.2415 128.419 20.0085 128.92 20.946C129.422 21.8741 129.673 22.9867 129.673 24.2841V39H123.935V35.9744H123.764C123.414 36.6562 122.945 37.2576 122.358 37.7784C121.771 38.2898 121.065 38.6922 120.241 38.9858C119.418 39.2699 118.466 39.4119 117.386 39.4119ZM119.119 35.2358C120.009 35.2358 120.795 35.0606 121.477 34.7102C122.159 34.3504 122.694 33.8674 123.082 33.2614C123.471 32.6553 123.665 31.9687 123.665 31.2017V28.8864C123.475 29.0095 123.215 29.1231 122.884 29.2273C122.562 29.322 122.197 29.4119 121.79 29.4972C121.383 29.5729 120.975 29.6439 120.568 29.7102C120.161 29.767 119.792 29.8191 119.46 29.8665C118.75 29.9706 118.13 30.1364 117.599 30.3636C117.069 30.5909 116.657 30.8987 116.364 31.2869C116.07 31.6657 115.923 32.1392 115.923 32.7074C115.923 33.5312 116.222 34.161 116.818 34.5966C117.424 35.0227 118.191 35.2358 119.119 35.2358ZM134.368 39V17.1818H140.234V20.9886H140.462C140.859 19.6345 141.527 18.6117 142.464 17.9205C143.402 17.2197 144.482 16.8693 145.703 16.8693C146.006 16.8693 146.333 16.8883 146.683 16.9261C147.034 16.964 147.341 17.0161 147.607 17.0824V22.4517C147.322 22.3665 146.929 22.2907 146.428 22.2244C145.926 22.1581 145.466 22.125 145.05 22.125C144.16 22.125 143.364 22.3191 142.663 22.7074C141.972 23.0862 141.423 23.6165 141.016 24.2983C140.618 24.9801 140.419 25.7661 140.419 26.6562V39H134.368ZM159.663 39.4261C157.418 39.4261 155.487 38.9716 153.867 38.0625C152.257 37.1439 151.017 35.8466 150.146 34.1705C149.274 32.4848 148.839 30.4915 148.839 28.1903C148.839 25.946 149.274 23.9763 150.146 22.2812C151.017 20.5862 152.243 19.2652 153.825 18.3182C155.415 17.3712 157.281 16.8977 159.421 16.8977C160.861 16.8977 162.201 17.1297 163.441 17.5938C164.691 18.0483 165.78 18.7348 166.708 19.6534C167.646 20.572 168.375 21.7273 168.896 23.1193C169.416 24.5019 169.677 26.1212 169.677 27.9773V29.6392H151.254V25.8892H163.981C163.981 25.018 163.791 24.2462 163.413 23.5739C163.034 22.9015 162.508 22.3759 161.836 21.9972C161.173 21.6089 160.401 21.4148 159.521 21.4148C158.602 21.4148 157.788 21.6278 157.077 22.054C156.377 22.4706 155.827 23.0341 155.43 23.7443C155.032 24.4451 154.828 25.2263 154.819 26.0881V29.6534C154.819 30.733 155.018 31.6657 155.415 32.4517C155.823 33.2377 156.396 33.8438 157.134 34.2699C157.873 34.696 158.749 34.9091 159.762 34.9091C160.434 34.9091 161.05 34.8144 161.609 34.625C162.167 34.4356 162.646 34.1515 163.043 33.7727C163.441 33.3939 163.744 32.9299 163.952 32.3807L169.549 32.75C169.265 34.0947 168.683 35.2689 167.802 36.2727C166.931 37.267 165.804 38.0436 164.421 38.6023C163.048 39.1515 161.462 39.4261 159.663 39.4261Z" fill="#FF8DAA"/>
<path d="M55.3279 63.7923C55.3279 64.0297 54.9422 64.1484 54.1707 64.1484C54.0323 64.1484 53.1026 63.0901 51.3817 60.9736C49.6805 58.8372 48.2761 57.0174 47.1684 55.5141C47.0101 55.2965 46.5057 54.5745 45.6551 53.3481C44.409 51.5283 43.6375 50.4304 43.3408 50.0546L43.2814 52.3393L43.2518 54.5646C43.2518 55.969 43.232 57.4921 43.1924 59.1339C43.1727 60.7757 43.143 62.0813 43.1034 63.0505C43.0836 63.2879 42.9748 63.5055 42.777 63.7033C42.599 63.9011 42.4111 64 42.2133 64C41.9957 64 41.8375 63.9407 41.7386 63.822C41.6594 63.6835 41.6199 63.4264 41.6199 63.0505C41.6199 62.8132 41.6594 62.0813 41.7386 60.8549C41.9166 58.5801 42.0056 56.6712 42.0056 55.1284C42.0056 53.9019 42.0254 52.7448 42.0649 51.6568C42.1045 50.5491 42.1243 49.8667 42.1243 49.6095L42.1539 48.7491V48.6601C42.1539 48.4425 42.1836 48.2743 42.243 48.1556C42.3221 48.0172 42.4704 47.948 42.688 47.948H42.8364C43.054 47.948 43.4793 48.3436 44.1122 49.1348C44.765 49.9062 45.5859 50.9645 46.5749 52.3096C46.7925 52.5865 47.0002 52.8635 47.198 53.1404C47.3958 53.3975 47.5838 53.6448 47.7618 53.8822C48.8893 55.3262 49.4827 56.0877 49.542 56.1668C52.3509 59.7471 53.8839 61.7846 54.1411 62.2791C54.1015 62.1208 54.0323 61.7549 53.9334 61.1812C53.8345 60.6076 53.7356 59.8559 53.6367 58.9262C53.5575 57.9966 53.518 57.0372 53.518 56.0482C53.518 54.2877 53.3498 51.9634 53.0136 49.0755C52.9147 48.126 52.8652 47.5424 52.8652 47.3249C52.8652 46.5732 53.2905 46.1974 54.1411 46.1974C54.3389 46.1974 54.4872 46.4051 54.5861 46.8205C54.685 47.2161 54.7543 48.0666 54.7938 49.3722C54.8334 50.6777 54.8532 52.7646 54.8532 55.6328C54.8532 56.5427 54.8828 57.4328 54.9422 58.3032C55.0213 59.1735 55.0905 59.945 55.1499 60.6175C55.2488 61.5472 55.2982 62.2494 55.2982 62.7241L55.3279 63.7923ZM72.2828 62.1011C72.3026 62.2395 72.3817 62.3879 72.5202 62.5461C72.6587 62.6846 72.7279 62.8033 72.7279 62.9022C72.7279 63.1395 72.629 63.4165 72.4312 63.733C72.2334 64.0297 72.0356 64.178 71.8378 64.178C71.5015 64.178 71.2443 63.9703 71.0663 63.5549C70.8883 63.1395 70.7993 62.6549 70.7993 62.1011C70.7993 61.6263 70.8289 60.2021 70.8883 57.8284L70.918 56.7009C70.918 56.246 70.7993 55.9196 70.5619 55.7218C69.6718 57.2251 68.841 58.5306 68.0695 59.6384C67.2981 60.7461 66.3189 61.7945 65.1321 62.7835C63.9453 63.7527 62.6991 64.2374 61.3935 64.2374C60.7606 64.2374 60.266 64.0396 59.91 63.6439C59.5737 63.2483 59.4056 62.734 59.4056 62.1011C59.4056 61.3098 59.7616 60.2318 60.4737 58.8669C61.1859 57.4823 62.0958 56.0877 63.2035 54.6833C64.3112 53.2591 65.4189 52.092 66.5266 51.1821C67.2585 50.5887 67.8421 50.1931 68.2772 49.9953C68.7124 49.7777 69.0981 49.6689 69.4344 49.6689C69.7509 49.6689 70.0773 49.7678 70.4136 49.9656C70.7498 50.1634 71.0366 50.4403 71.274 50.7964C71.5114 51.1524 71.6301 51.5579 71.6301 52.0129C71.6301 52.6261 71.4619 53.2096 71.1257 53.7635L71.6301 53.6151C71.8477 53.6151 71.9762 53.8822 72.0158 54.4162C72.0356 54.7327 72.0554 55.3756 72.0751 56.3449C72.1147 57.3141 72.1444 58.1152 72.1641 58.7482C72.1839 59.401 72.2037 60.034 72.2235 60.6472C72.2433 61.2604 72.2631 61.745 72.2828 62.1011ZM61.8089 62.6351C62.8771 62.6351 63.9057 62.2395 64.8947 61.4483C65.8838 60.6571 66.764 59.7175 67.5355 58.6295C68.3267 57.5218 69.197 56.1668 70.1465 54.5646C70.3839 53.9712 70.5026 53.3283 70.5026 52.636C70.5026 52.2206 70.374 51.8645 70.1168 51.5678C69.8795 51.2513 69.5531 51.0931 69.1377 51.0931C68.6432 51.0931 68.0102 51.4294 67.2387 52.1019C66.3486 52.8536 65.409 53.8624 64.42 55.1284C63.431 56.3745 62.6101 57.6108 61.9573 58.8372C61.3045 60.0636 60.9782 61.0329 60.9782 61.745C60.9782 62.3384 61.2551 62.6351 61.8089 62.6351ZM88.8481 51.7162C88.8481 52.0525 88.6997 52.3096 88.403 52.4876C88.1261 52.6657 87.6118 52.8041 86.8601 52.903C85.0403 53.2195 84.0216 53.3975 83.804 53.4371L81.8754 53.7635C81.8754 54.7921 81.8853 55.8701 81.9051 56.9976C81.9446 58.1251 81.9941 59.1142 82.0534 59.9647C82.1325 61.112 82.271 61.9923 82.4688 62.6055C82.6666 63.2187 82.7754 63.5648 82.7952 63.6439C82.7952 63.8418 82.6666 64.0198 82.4095 64.178C82.1721 64.3561 81.9446 64.4451 81.727 64.4451C81.6084 64.4451 81.5094 64.4055 81.4303 64.3264C81.3512 64.267 81.282 64.1582 81.2226 64C81.1039 63.7231 80.9853 63.2088 80.8666 62.4571C80.7677 61.7054 80.6885 60.8746 80.6292 59.9647C80.5699 59.1537 80.5204 58.2141 80.4809 57.146C80.4611 56.058 80.4512 55.0097 80.4512 54.0009C79.3435 54.1789 78.2061 54.3965 77.039 54.6536C75.9906 54.8712 75.3675 54.98 75.1697 54.98C74.9324 54.98 74.7049 54.9108 74.4873 54.7723C74.2895 54.6338 74.1906 54.4459 74.1906 54.2085C74.1906 53.9514 74.2796 53.7833 74.4576 53.7041C74.6357 53.625 74.9324 53.5855 75.3478 53.5855C75.6445 53.5855 76.0796 53.536 76.6533 53.4371C77.2269 53.3184 77.5929 53.2393 77.7511 53.1997C79.0764 52.9426 79.9764 52.7744 80.4512 52.6953C80.4512 52.2799 80.4314 51.736 80.3918 51.0634C80.3523 50.1535 80.3325 49.4612 80.3325 48.9864C80.3325 48.215 80.3523 47.6216 80.3918 47.2062C80.4512 46.771 80.5501 46.3853 80.6885 46.049C80.8468 45.6534 81.1435 45.4556 81.5787 45.4556C81.7567 45.4556 81.8754 45.4853 81.9347 45.5446C81.9941 45.6039 82.0237 45.7127 82.0237 45.871C82.0237 45.9897 81.9743 46.3358 81.8754 46.9095C81.7765 47.4831 81.727 48.2447 81.727 49.1941C81.727 49.926 81.7468 50.7469 81.7864 51.6568L81.8161 52.458C82.7062 52.3195 84.4667 51.9535 87.0975 51.3601C87.2557 51.3206 87.3843 51.1821 87.4832 50.9447C87.6019 50.7074 87.7206 50.5887 87.8393 50.5887C88.0569 50.5887 88.2745 50.7173 88.492 50.9744C88.7294 51.2118 88.8481 51.459 88.8481 51.7162ZM102.738 63.4956C102.738 63.8121 102.649 64.0593 102.471 64.2374C102.293 64.4154 102.046 64.5044 101.73 64.5044C101.334 64.5044 100.968 64.089 100.632 63.2582C100.315 62.4274 100.117 61.567 100.038 60.6768C99.9591 59.8263 99.8998 58.1053 99.8602 55.5141C99.8404 55.0987 99.8306 54.6833 99.8306 54.2679C99.8306 53.8327 99.8207 53.4668 99.8009 53.1701C99.2272 54.5349 98.4459 56.0877 97.4569 57.8284C96.4678 59.5691 95.4689 61.0626 94.4601 62.3087C93.4711 63.5549 92.6601 64.178 92.0271 64.178C91.3743 64.178 90.9391 63.8319 90.7215 63.1395C90.5237 62.4472 90.4248 61.3494 90.4248 59.8461C90.4248 58.4416 90.6029 56.8493 90.9589 55.069C91.3347 53.2887 91.76 51.9338 92.2348 51.0041C92.4326 50.5887 92.6007 50.3117 92.7392 50.1733C92.8776 50.015 93.0359 49.9359 93.2139 49.9359C93.7084 49.9359 93.9557 50.0348 93.9557 50.2326C93.9557 50.3315 93.8568 50.559 93.659 50.9151C93.1249 51.9041 92.6601 53.0909 92.2644 54.4756C91.8688 55.8602 91.671 57.7196 91.671 60.0537C91.671 61.6164 91.8886 62.3978 92.3238 62.3978C92.8381 62.3978 93.5304 61.834 94.4008 60.7065C95.2909 59.5592 96.1711 58.1944 97.0415 56.6119C97.9118 55.0294 98.5745 53.6547 99.0294 52.4876C99.1877 52.092 99.3657 51.4788 99.5635 50.648C99.6229 50.3117 99.6822 50.0744 99.7415 49.9359C99.8009 49.7777 99.8701 49.6985 99.9492 49.6985C100.167 49.6985 100.404 49.7876 100.661 49.9656C100.918 50.1436 101.047 50.3315 101.047 50.5293C101.047 51.4788 101.077 53.1107 101.136 55.4251C101.215 57.7196 101.304 59.312 101.403 60.2021C101.482 60.9736 101.621 61.5769 101.819 62.012C102.036 62.4472 102.244 62.7934 102.442 63.0505C102.639 63.2879 102.738 63.4362 102.738 63.4956ZM115.349 51.5085C115.349 51.6865 115.221 51.8942 114.963 52.1316C114.726 52.3492 114.518 52.458 114.34 52.458C114.202 52.458 114.063 52.3986 113.925 52.2799C113.806 52.1612 113.668 51.9931 113.51 51.7755C113.371 51.5777 113.183 51.4096 112.946 51.2711C112.728 51.1326 112.501 51.0634 112.263 51.0634C111.69 51.0634 110.918 51.825 109.949 53.3481C108.98 54.8514 108.03 56.7504 107.101 59.0449C107.12 59.4999 107.15 60.0735 107.19 60.7659C107.249 61.4582 107.289 61.9725 107.308 62.3087L107.397 63.4956C107.397 63.7725 107.338 64.0099 107.219 64.2077C107.101 64.4253 106.883 64.5341 106.567 64.5341C106.23 64.5341 106.013 64.089 105.914 63.1989C105.815 62.289 105.756 60.9736 105.736 59.2526C105.716 58.8175 105.696 58.1944 105.676 57.3834C105.676 56.5723 105.657 55.6031 105.617 54.4756C105.558 52.7744 105.528 51.5579 105.528 50.826C105.528 50.3711 105.805 50.1436 106.359 50.1436C106.695 50.1436 106.893 50.292 106.952 50.5887C107.031 50.8656 107.071 51.4096 107.071 52.2206V56.9383C107.664 55.4152 108.307 54.0998 109 52.992C109.692 51.8843 110.364 51.0436 111.017 50.47C111.69 49.8766 112.283 49.5799 112.798 49.5799C113.233 49.5799 113.648 49.6788 114.044 49.8766C114.439 50.0744 114.756 50.3315 114.993 50.648C115.231 50.9447 115.349 51.2316 115.349 51.5085ZM129.742 62.1011C129.761 62.2395 129.84 62.3879 129.979 62.5461C130.117 62.6846 130.187 62.8033 130.187 62.9022C130.187 63.1395 130.088 63.4165 129.89 63.733C129.692 64.0297 129.494 64.178 129.296 64.178C128.96 64.178 128.703 63.9703 128.525 63.5549C128.347 63.1395 128.258 62.6549 128.258 62.1011C128.258 61.6263 128.288 60.2021 128.347 57.8284L128.377 56.7009C128.377 56.246 128.258 55.9196 128.021 55.7218C127.13 57.2251 126.3 58.5306 125.528 59.6384C124.757 60.7461 123.778 61.7945 122.591 62.7835C121.404 63.7527 120.158 64.2374 118.852 64.2374C118.219 64.2374 117.725 64.0396 117.369 63.6439C117.032 63.2483 116.864 62.734 116.864 62.1011C116.864 61.3098 117.22 60.2318 117.932 58.8669C118.645 57.4823 119.554 56.0877 120.662 54.6833C121.77 53.2591 122.878 52.092 123.985 51.1821C124.717 50.5887 125.301 50.1931 125.736 49.9953C126.171 49.7777 126.557 49.6689 126.893 49.6689C127.21 49.6689 127.536 49.7678 127.872 49.9656C128.209 50.1634 128.495 50.4403 128.733 50.7964C128.97 51.1524 129.089 51.5579 129.089 52.0129C129.089 52.6261 128.921 53.2096 128.584 53.7635L129.089 53.6151C129.306 53.6151 129.435 53.8822 129.475 54.4162C129.494 54.7327 129.514 55.3756 129.534 56.3449C129.573 57.3141 129.603 58.1152 129.623 58.7482C129.643 59.401 129.662 60.034 129.682 60.6472C129.702 61.2604 129.722 61.745 129.742 62.1011ZM119.268 62.6351C120.336 62.6351 121.364 62.2395 122.353 61.4483C123.342 60.6571 124.223 59.7175 124.994 58.6295C125.785 57.5218 126.656 56.1668 127.605 54.5646C127.843 53.9712 127.961 53.3283 127.961 52.636C127.961 52.2206 127.833 51.8645 127.576 51.5678C127.338 51.2513 127.012 51.0931 126.596 51.0931C126.102 51.0931 125.469 51.4294 124.697 52.1019C123.807 52.8536 122.868 53.8624 121.879 55.1284C120.89 56.3745 120.069 57.6108 119.416 58.8372C118.763 60.0636 118.437 61.0329 118.437 61.745C118.437 62.3384 118.714 62.6351 119.268 62.6351ZM136.041 63.1989C136.041 63.3967 135.912 63.5549 135.655 63.6736C135.398 63.7923 135.111 63.8516 134.794 63.8516C134.557 63.8516 134.33 63.5747 134.112 63.0209C133.914 62.4472 133.815 61.5868 133.815 60.4395C133.835 58.2043 133.865 55.5042 133.904 52.3393C133.964 49.1744 134.013 46.7908 134.053 45.1885C134.072 44.6149 134.171 44.0808 134.349 43.5863C134.547 43.0918 134.883 42.8445 135.358 42.8445C135.516 42.8445 135.615 42.9335 135.655 43.1116C135.714 43.2698 135.744 43.5863 135.744 44.061C135.744 44.0808 135.734 44.1501 135.714 44.2687C135.714 44.3676 135.714 44.5556 135.714 44.8325C135.358 50.0348 135.18 55.1086 135.18 60.0537C135.18 60.6867 135.319 61.3593 135.596 62.0714C135.892 62.7835 136.041 63.1593 136.041 63.1989Z" fill="black"/>
</svg>
